<mxfile host="app.diagrams.net" modified="2021-11-02T16:33:22.266Z" agent="5.0 (Macintosh; Intel Mac OS X 10_15_7) AppleWebKit/537.36 (KHTML, like Gecko) Chrome/95.0.4638.69 Safari/537.36" etag="2JOY56NUIK9lzMm_mKd0" version="15.6.5" type="github">
  <diagram id="yJg1Kb8j-frXyEde3Gr0" name="Page-1">
    <mxGraphModel dx="946" dy="557" grid="1" gridSize="10" guides="1" tooltips="1" connect="1" arrows="1" fold="1" page="1" pageScale="1" pageWidth="827" pageHeight="1169" math="0" shadow="0">
      <root>
        <mxCell id="0" />
        <mxCell id="1" parent="0" />
        <mxCell id="yvM0evaUFP_A3iR6w8Kv-1" value="Composition" style="rounded=0;whiteSpace=wrap;html=1;fillColor=default;strokeColor=default;fontColor=default;" vertex="1" parent="1">
          <mxGeometry x="300" y="280" width="80" height="40" as="geometry" />
        </mxCell>
        <mxCell id="yvM0evaUFP_A3iR6w8Kv-2" value="Iterator" style="rounded=0;whiteSpace=wrap;html=1;fillColor=default;strokeColor=default;fontColor=default;" vertex="1" parent="1">
          <mxGeometry x="300" y="180" width="80" height="40" as="geometry" />
        </mxCell>
        <mxCell id="yvM0evaUFP_A3iR6w8Kv-3" value="Command&lt;span style=&quot;color: rgba(0 , 0 , 0 , 0) ; font-family: monospace ; font-size: 0px&quot;&gt;%3CmxGraphModel%3E%3Croot%3E%3CmxCell%20id%3D%220%22%2F%3E%3CmxCell%20id%3D%221%22%20parent%3D%220%22%2F%3E%3CmxCell%20id%3D%222%22%20value%3D%22Composition%22%20style%3D%22rounded%3D0%3BwhiteSpace%3Dwrap%3Bhtml%3D1%3BfillColor%3Ddefault%3BstrokeColor%3Ddefault%3BfontColor%3Ddefault%3B%22%20vertex%3D%221%22%20parent%3D%221%22%3E%3CmxGeometry%20x%3D%22340%22%20y%3D%22280%22%20width%3D%2280%22%20height%3D%2240%22%20as%3D%22geometry%22%2F%3E%3C%2FmxCell%3E%3C%2Froot%3E%3C%2FmxGraphModel%3E&lt;/span&gt;" style="rounded=0;whiteSpace=wrap;html=1;fillColor=default;strokeColor=default;fontColor=default;" vertex="1" parent="1">
          <mxGeometry x="510" y="200" width="80" height="40" as="geometry" />
        </mxCell>
        <mxCell id="yvM0evaUFP_A3iR6w8Kv-4" value="Flyweight" style="rounded=0;whiteSpace=wrap;html=1;fillColor=default;strokeColor=default;fontColor=default;" vertex="1" parent="1">
          <mxGeometry x="300" y="370" width="80" height="40" as="geometry" />
        </mxCell>
        <mxCell id="yvM0evaUFP_A3iR6w8Kv-5" value="Visitor" style="rounded=0;whiteSpace=wrap;html=1;fillColor=default;strokeColor=default;fontColor=default;" vertex="1" parent="1">
          <mxGeometry x="130" y="280" width="80" height="40" as="geometry" />
        </mxCell>
        <mxCell id="yvM0evaUFP_A3iR6w8Kv-6" value="Decorator" style="rounded=0;whiteSpace=wrap;html=1;fillColor=default;strokeColor=default;fontColor=default;" vertex="1" parent="1">
          <mxGeometry x="510" y="350" width="80" height="40" as="geometry" />
        </mxCell>
        <mxCell id="yvM0evaUFP_A3iR6w8Kv-7" value="Memento" style="rounded=0;whiteSpace=wrap;html=1;fillColor=default;strokeColor=default;fontColor=default;" vertex="1" parent="1">
          <mxGeometry x="660" y="200" width="80" height="40" as="geometry" />
        </mxCell>
        <mxCell id="yvM0evaUFP_A3iR6w8Kv-8" value="Factory" style="rounded=0;whiteSpace=wrap;html=1;fillColor=default;strokeColor=default;fontColor=default;" vertex="1" parent="1">
          <mxGeometry x="130" y="440" width="80" height="40" as="geometry" />
        </mxCell>
        <mxCell id="yvM0evaUFP_A3iR6w8Kv-9" value="Strategy" style="rounded=0;whiteSpace=wrap;html=1;fillColor=default;strokeColor=default;fontColor=default;" vertex="1" parent="1">
          <mxGeometry x="300" y="460" width="80" height="40" as="geometry" />
        </mxCell>
        <mxCell id="yvM0evaUFP_A3iR6w8Kv-10" value="Observer" style="rounded=0;whiteSpace=wrap;html=1;fillColor=default;strokeColor=default;fontColor=default;" vertex="1" parent="1">
          <mxGeometry x="460" y="460" width="80" height="40" as="geometry" />
        </mxCell>
        <mxCell id="yvM0evaUFP_A3iR6w8Kv-11" value="State" style="rounded=0;whiteSpace=wrap;html=1;fillColor=default;strokeColor=default;fontColor=default;" vertex="1" parent="1">
          <mxGeometry x="640" y="460" width="80" height="40" as="geometry" />
        </mxCell>
        <mxCell id="yvM0evaUFP_A3iR6w8Kv-12" value="FactoryMethod" style="rounded=0;whiteSpace=wrap;html=1;fillColor=default;strokeColor=default;fontColor=default;" vertex="1" parent="1">
          <mxGeometry x="10" y="440" width="80" height="40" as="geometry" />
        </mxCell>
        <mxCell id="yvM0evaUFP_A3iR6w8Kv-13" value="Builder" style="rounded=0;whiteSpace=wrap;html=1;fillColor=default;strokeColor=default;fontColor=default;" vertex="1" parent="1">
          <mxGeometry x="130" y="600" width="80" height="40" as="geometry" />
        </mxCell>
        <mxCell id="yvM0evaUFP_A3iR6w8Kv-14" value="Singleton" style="rounded=0;whiteSpace=wrap;html=1;fillColor=default;strokeColor=default;fontColor=default;" vertex="1" parent="1">
          <mxGeometry x="130" y="360" width="80" height="40" as="geometry" />
        </mxCell>
        <mxCell id="yvM0evaUFP_A3iR6w8Kv-15" value="NullObject" style="rounded=0;whiteSpace=wrap;html=1;fillColor=default;strokeColor=default;fontColor=default;" vertex="1" parent="1">
          <mxGeometry x="10" y="610" width="80" height="40" as="geometry" />
        </mxCell>
        <mxCell id="yvM0evaUFP_A3iR6w8Kv-16" value="Prototype" style="rounded=0;whiteSpace=wrap;html=1;fillColor=default;strokeColor=default;fontColor=default;" vertex="1" parent="1">
          <mxGeometry x="290" y="710" width="80" height="40" as="geometry" />
        </mxCell>
        <mxCell id="yvM0evaUFP_A3iR6w8Kv-17" value="Bridge" style="rounded=0;whiteSpace=wrap;html=1;fillColor=default;strokeColor=default;fontColor=default;" vertex="1" parent="1">
          <mxGeometry x="290" y="600" width="80" height="40" as="geometry" />
        </mxCell>
        <mxCell id="yvM0evaUFP_A3iR6w8Kv-18" value="Facade" style="rounded=0;whiteSpace=wrap;html=1;fillColor=default;strokeColor=default;fontColor=default;" vertex="1" parent="1">
          <mxGeometry x="460" y="600" width="80" height="40" as="geometry" />
        </mxCell>
        <mxCell id="yvM0evaUFP_A3iR6w8Kv-19" value="" style="endArrow=none;html=1;rounded=0;fontColor=default;entryX=0.5;entryY=1;entryDx=0;entryDy=0;strokeColor=default;labelBackgroundColor=default;exitX=0.5;exitY=0;exitDx=0;exitDy=0;edgeStyle=orthogonalEdgeStyle;curved=1;" edge="1" parent="1" source="yvM0evaUFP_A3iR6w8Kv-1" target="yvM0evaUFP_A3iR6w8Kv-2">
          <mxGeometry width="50" height="50" relative="1" as="geometry">
            <mxPoint x="390" y="330" as="sourcePoint" />
            <mxPoint x="440" y="280" as="targetPoint" />
          </mxGeometry>
        </mxCell>
        <mxCell id="yvM0evaUFP_A3iR6w8Kv-21" value="" style="endArrow=none;html=1;rounded=0;labelBackgroundColor=default;fontColor=default;strokeColor=default;exitX=1;exitY=0.5;exitDx=0;exitDy=0;entryX=0.5;entryY=1;entryDx=0;entryDy=0;" edge="1" parent="1" source="yvM0evaUFP_A3iR6w8Kv-1" target="yvM0evaUFP_A3iR6w8Kv-3">
          <mxGeometry width="50" height="50" relative="1" as="geometry">
            <mxPoint x="390" y="330" as="sourcePoint" />
            <mxPoint x="440" y="280" as="targetPoint" />
          </mxGeometry>
        </mxCell>
        <mxCell id="yvM0evaUFP_A3iR6w8Kv-23" value="" style="endArrow=none;html=1;rounded=0;fontColor=default;entryX=0;entryY=0.5;entryDx=0;entryDy=0;strokeColor=default;labelBackgroundColor=default;exitX=1;exitY=0.5;exitDx=0;exitDy=0;" edge="1" parent="1" source="yvM0evaUFP_A3iR6w8Kv-3" target="yvM0evaUFP_A3iR6w8Kv-7">
          <mxGeometry width="50" height="50" relative="1" as="geometry">
            <mxPoint x="390" y="290" as="sourcePoint" />
            <mxPoint x="390" y="230" as="targetPoint" />
          </mxGeometry>
        </mxCell>
        <mxCell id="yvM0evaUFP_A3iR6w8Kv-24" value="" style="endArrow=none;html=1;rounded=0;fontColor=default;entryX=0;entryY=0.5;entryDx=0;entryDy=0;strokeColor=default;labelBackgroundColor=default;exitX=1;exitY=0.5;exitDx=0;exitDy=0;" edge="1" parent="1" source="yvM0evaUFP_A3iR6w8Kv-1" target="yvM0evaUFP_A3iR6w8Kv-6">
          <mxGeometry width="50" height="50" relative="1" as="geometry">
            <mxPoint x="400" y="300" as="sourcePoint" />
            <mxPoint x="400" y="240" as="targetPoint" />
          </mxGeometry>
        </mxCell>
        <mxCell id="yvM0evaUFP_A3iR6w8Kv-25" value="" style="endArrow=none;html=1;rounded=0;fontColor=default;entryX=0.5;entryY=0;entryDx=0;entryDy=0;strokeColor=default;labelBackgroundColor=default;exitX=0.5;exitY=1;exitDx=0;exitDy=0;" edge="1" parent="1" source="yvM0evaUFP_A3iR6w8Kv-1" target="yvM0evaUFP_A3iR6w8Kv-4">
          <mxGeometry width="50" height="50" relative="1" as="geometry">
            <mxPoint x="410" y="310" as="sourcePoint" />
            <mxPoint x="410" y="250" as="targetPoint" />
          </mxGeometry>
        </mxCell>
        <mxCell id="yvM0evaUFP_A3iR6w8Kv-26" value="" style="endArrow=none;html=1;rounded=0;fontColor=default;entryX=1;entryY=0.5;entryDx=0;entryDy=0;strokeColor=default;labelBackgroundColor=default;exitX=0;exitY=0.5;exitDx=0;exitDy=0;edgeStyle=orthogonalEdgeStyle;curved=1;" edge="1" parent="1" source="yvM0evaUFP_A3iR6w8Kv-1" target="yvM0evaUFP_A3iR6w8Kv-5">
          <mxGeometry width="50" height="50" relative="1" as="geometry">
            <mxPoint x="420" y="320" as="sourcePoint" />
            <mxPoint x="420" y="260" as="targetPoint" />
          </mxGeometry>
        </mxCell>
        <mxCell id="yvM0evaUFP_A3iR6w8Kv-27" value="" style="endArrow=none;html=1;rounded=0;labelBackgroundColor=default;fontColor=default;strokeColor=default;exitX=1;exitY=0.5;exitDx=0;exitDy=0;entryX=0.5;entryY=1;entryDx=0;entryDy=0;" edge="1" parent="1" source="yvM0evaUFP_A3iR6w8Kv-8" target="yvM0evaUFP_A3iR6w8Kv-4">
          <mxGeometry width="50" height="50" relative="1" as="geometry">
            <mxPoint x="390" y="450" as="sourcePoint" />
            <mxPoint x="440" y="400" as="targetPoint" />
          </mxGeometry>
        </mxCell>
        <mxCell id="yvM0evaUFP_A3iR6w8Kv-28" value="" style="endArrow=none;html=1;rounded=0;fontColor=default;entryX=0.5;entryY=1;entryDx=0;entryDy=0;strokeColor=default;labelBackgroundColor=default;exitX=0.5;exitY=0;exitDx=0;exitDy=0;" edge="1" parent="1" source="yvM0evaUFP_A3iR6w8Kv-9" target="yvM0evaUFP_A3iR6w8Kv-4">
          <mxGeometry width="50" height="50" relative="1" as="geometry">
            <mxPoint x="430" y="330" as="sourcePoint" />
            <mxPoint x="430" y="270" as="targetPoint" />
          </mxGeometry>
        </mxCell>
        <mxCell id="yvM0evaUFP_A3iR6w8Kv-29" value="" style="endArrow=none;html=1;rounded=0;fontColor=default;entryX=0.5;entryY=1;entryDx=0;entryDy=0;strokeColor=default;labelBackgroundColor=default;exitX=0.5;exitY=0;exitDx=0;exitDy=0;" edge="1" parent="1" source="yvM0evaUFP_A3iR6w8Kv-10" target="yvM0evaUFP_A3iR6w8Kv-4">
          <mxGeometry width="50" height="50" relative="1" as="geometry">
            <mxPoint x="440" y="340" as="sourcePoint" />
            <mxPoint x="440" y="280" as="targetPoint" />
          </mxGeometry>
        </mxCell>
        <mxCell id="yvM0evaUFP_A3iR6w8Kv-30" value="" style="endArrow=none;html=1;rounded=0;fontColor=default;entryX=1;entryY=0.5;entryDx=0;entryDy=0;strokeColor=default;labelBackgroundColor=default;exitX=0;exitY=0.5;exitDx=0;exitDy=0;" edge="1" parent="1" source="yvM0evaUFP_A3iR6w8Kv-11" target="yvM0evaUFP_A3iR6w8Kv-10">
          <mxGeometry width="50" height="50" relative="1" as="geometry">
            <mxPoint x="450" y="350" as="sourcePoint" />
            <mxPoint x="450" y="290" as="targetPoint" />
          </mxGeometry>
        </mxCell>
        <mxCell id="yvM0evaUFP_A3iR6w8Kv-31" value="" style="endArrow=none;html=1;rounded=0;fontColor=default;entryX=0;entryY=0.5;entryDx=0;entryDy=0;strokeColor=default;labelBackgroundColor=default;exitX=1;exitY=0.5;exitDx=0;exitDy=0;" edge="1" parent="1" source="yvM0evaUFP_A3iR6w8Kv-9" target="yvM0evaUFP_A3iR6w8Kv-10">
          <mxGeometry width="50" height="50" relative="1" as="geometry">
            <mxPoint x="460" y="360" as="sourcePoint" />
            <mxPoint x="460" y="300" as="targetPoint" />
          </mxGeometry>
        </mxCell>
        <mxCell id="yvM0evaUFP_A3iR6w8Kv-34" value="" style="endArrow=none;html=1;rounded=0;fontColor=default;entryX=0;entryY=0.5;entryDx=0;entryDy=0;strokeColor=default;labelBackgroundColor=default;exitX=1;exitY=0.5;exitDx=0;exitDy=0;" edge="1" parent="1" source="yvM0evaUFP_A3iR6w8Kv-12" target="yvM0evaUFP_A3iR6w8Kv-8">
          <mxGeometry width="50" height="50" relative="1" as="geometry">
            <mxPoint x="470" y="370" as="sourcePoint" />
            <mxPoint x="470" y="310" as="targetPoint" />
          </mxGeometry>
        </mxCell>
        <mxCell id="yvM0evaUFP_A3iR6w8Kv-35" value="" style="endArrow=none;html=1;rounded=0;fontColor=default;entryX=0.5;entryY=0;entryDx=0;entryDy=0;strokeColor=default;labelBackgroundColor=default;exitX=0.5;exitY=1;exitDx=0;exitDy=0;" edge="1" parent="1" source="yvM0evaUFP_A3iR6w8Kv-8" target="yvM0evaUFP_A3iR6w8Kv-13">
          <mxGeometry width="50" height="50" relative="1" as="geometry">
            <mxPoint x="480" y="380" as="sourcePoint" />
            <mxPoint x="480" y="320" as="targetPoint" />
          </mxGeometry>
        </mxCell>
        <mxCell id="yvM0evaUFP_A3iR6w8Kv-36" value="" style="endArrow=none;html=1;rounded=0;fontColor=default;entryX=0.5;entryY=0;entryDx=0;entryDy=0;strokeColor=default;labelBackgroundColor=default;exitX=0.5;exitY=1;exitDx=0;exitDy=0;" edge="1" parent="1" source="yvM0evaUFP_A3iR6w8Kv-8" target="yvM0evaUFP_A3iR6w8Kv-15">
          <mxGeometry width="50" height="50" relative="1" as="geometry">
            <mxPoint x="490" y="390" as="sourcePoint" />
            <mxPoint x="490" y="330" as="targetPoint" />
          </mxGeometry>
        </mxCell>
        <mxCell id="yvM0evaUFP_A3iR6w8Kv-37" value="" style="endArrow=none;html=1;rounded=0;fontColor=default;strokeColor=default;labelBackgroundColor=default;exitX=0.5;exitY=0;exitDx=0;exitDy=0;" edge="1" parent="1" source="yvM0evaUFP_A3iR6w8Kv-8" target="yvM0evaUFP_A3iR6w8Kv-14">
          <mxGeometry width="50" height="50" relative="1" as="geometry">
            <mxPoint x="500" y="400" as="sourcePoint" />
            <mxPoint x="500" y="340" as="targetPoint" />
          </mxGeometry>
        </mxCell>
        <mxCell id="yvM0evaUFP_A3iR6w8Kv-38" value="" style="endArrow=none;html=1;rounded=0;fontColor=default;entryX=0.5;entryY=0;entryDx=0;entryDy=0;strokeColor=default;labelBackgroundColor=default;" edge="1" parent="1" target="yvM0evaUFP_A3iR6w8Kv-16">
          <mxGeometry width="50" height="50" relative="1" as="geometry">
            <mxPoint x="170" y="480" as="sourcePoint" />
            <mxPoint x="510" y="350" as="targetPoint" />
          </mxGeometry>
        </mxCell>
        <mxCell id="yvM0evaUFP_A3iR6w8Kv-39" value="" style="endArrow=none;html=1;rounded=0;fontColor=default;entryX=0.5;entryY=1;entryDx=0;entryDy=0;strokeColor=default;labelBackgroundColor=default;exitX=0.5;exitY=0;exitDx=0;exitDy=0;" edge="1" parent="1" source="yvM0evaUFP_A3iR6w8Kv-16" target="yvM0evaUFP_A3iR6w8Kv-17">
          <mxGeometry width="50" height="50" relative="1" as="geometry">
            <mxPoint x="520" y="420" as="sourcePoint" />
            <mxPoint x="520" y="360" as="targetPoint" />
          </mxGeometry>
        </mxCell>
        <mxCell id="yvM0evaUFP_A3iR6w8Kv-40" value="" style="endArrow=none;html=1;rounded=0;fontColor=default;strokeColor=default;labelBackgroundColor=default;exitX=0;exitY=0.5;exitDx=0;exitDy=0;entryX=0.5;entryY=0;entryDx=0;entryDy=0;" edge="1" parent="1" source="yvM0evaUFP_A3iR6w8Kv-18" target="yvM0evaUFP_A3iR6w8Kv-16">
          <mxGeometry width="50" height="50" relative="1" as="geometry">
            <mxPoint x="530" y="430" as="sourcePoint" />
            <mxPoint x="250" y="710" as="targetPoint" />
          </mxGeometry>
        </mxCell>
        <mxCell id="yvM0evaUFP_A3iR6w8Kv-42" value="" style="endArrow=none;html=1;rounded=0;fontColor=default;entryX=0.5;entryY=1;entryDx=0;entryDy=0;strokeColor=default;labelBackgroundColor=default;exitX=0.5;exitY=0;exitDx=0;exitDy=0;" edge="1" parent="1" source="yvM0evaUFP_A3iR6w8Kv-17" target="yvM0evaUFP_A3iR6w8Kv-8">
          <mxGeometry width="50" height="50" relative="1" as="geometry">
            <mxPoint x="540" y="440" as="sourcePoint" />
            <mxPoint x="540" y="380" as="targetPoint" />
          </mxGeometry>
        </mxCell>
        <mxCell id="yvM0evaUFP_A3iR6w8Kv-47" value="枚举子女" style="text;html=1;align=center;verticalAlign=middle;resizable=0;points=[];autosize=1;strokeColor=none;fillColor=none;fontColor=default;" vertex="1" parent="1">
          <mxGeometry x="320" y="240" width="60" height="20" as="geometry" />
        </mxCell>
        <mxCell id="yvM0evaUFP_A3iR6w8Kv-48" value="宏命令" style="text;html=1;align=center;verticalAlign=middle;resizable=0;points=[];autosize=1;strokeColor=none;fillColor=none;fontColor=default;" vertex="1" parent="1">
          <mxGeometry x="435" y="250" width="50" height="20" as="geometry" />
        </mxCell>
        <mxCell id="yvM0evaUFP_A3iR6w8Kv-49" value="撤销" style="text;html=1;align=center;verticalAlign=middle;resizable=0;points=[];autosize=1;strokeColor=none;fillColor=none;fontColor=default;" vertex="1" parent="1">
          <mxGeometry x="600" y="200" width="40" height="20" as="geometry" />
        </mxCell>
        <mxCell id="yvM0evaUFP_A3iR6w8Kv-50" value="装饰组合对象" style="text;html=1;align=center;verticalAlign=middle;resizable=0;points=[];autosize=1;strokeColor=none;fillColor=none;fontColor=default;" vertex="1" parent="1">
          <mxGeometry x="415" y="320" width="90" height="20" as="geometry" />
        </mxCell>
        <mxCell id="yvM0evaUFP_A3iR6w8Kv-51" value="复合享元" style="text;html=1;align=center;verticalAlign=middle;resizable=0;points=[];autosize=1;strokeColor=none;fillColor=none;fontColor=default;" vertex="1" parent="1">
          <mxGeometry x="300" y="330" width="60" height="20" as="geometry" />
        </mxCell>
        <mxCell id="yvM0evaUFP_A3iR6w8Kv-52" value="访问组合对象" style="text;html=1;align=center;verticalAlign=middle;resizable=0;points=[];autosize=1;strokeColor=none;fillColor=none;fontColor=default;" vertex="1" parent="1">
          <mxGeometry x="210" y="280" width="90" height="20" as="geometry" />
        </mxCell>
        <mxCell id="yvM0evaUFP_A3iR6w8Kv-53" value="享元工厂" style="text;html=1;align=center;verticalAlign=middle;resizable=0;points=[];autosize=1;strokeColor=none;fillColor=none;fontColor=default;" vertex="1" parent="1">
          <mxGeometry x="220" y="420" width="60" height="20" as="geometry" />
        </mxCell>
        <mxCell id="yvM0evaUFP_A3iR6w8Kv-54" value="依赖关系" style="text;html=1;align=center;verticalAlign=middle;resizable=0;points=[];autosize=1;strokeColor=none;fillColor=none;fontColor=default;" vertex="1" parent="1">
          <mxGeometry x="300" y="430" width="60" height="20" as="geometry" />
        </mxCell>
        <mxCell id="yvM0evaUFP_A3iR6w8Kv-55" value="观察享元对象" style="text;html=1;align=center;verticalAlign=middle;resizable=0;points=[];autosize=1;strokeColor=none;fillColor=none;fontColor=default;" vertex="1" parent="1">
          <mxGeometry x="385" y="420" width="90" height="20" as="geometry" />
        </mxCell>
        <mxCell id="yvM0evaUFP_A3iR6w8Kv-56" value="观察改变状态" style="text;html=1;align=center;verticalAlign=middle;resizable=0;points=[];autosize=1;strokeColor=none;fillColor=none;fontColor=default;" vertex="1" parent="1">
          <mxGeometry x="535" y="460" width="90" height="20" as="geometry" />
        </mxCell>
        <mxCell id="yvM0evaUFP_A3iR6w8Kv-57" value="初始化工厂参数" style="text;html=1;align=center;verticalAlign=middle;resizable=0;points=[];autosize=1;strokeColor=none;fillColor=none;fontColor=default;" vertex="1" parent="1">
          <mxGeometry x="110" y="540" width="100" height="20" as="geometry" />
        </mxCell>
        <mxCell id="yvM0evaUFP_A3iR6w8Kv-58" value="产生空对象" style="text;html=1;align=center;verticalAlign=middle;resizable=0;points=[];autosize=1;strokeColor=none;fillColor=none;fontColor=default;" vertex="1" parent="1">
          <mxGeometry x="20" y="550" width="80" height="20" as="geometry" />
        </mxCell>
        <mxCell id="yvM0evaUFP_A3iR6w8Kv-59" value="限制部分组合" style="text;html=1;align=center;verticalAlign=middle;resizable=0;points=[];autosize=1;strokeColor=none;fillColor=none;fontColor=default;" vertex="1" parent="1">
          <mxGeometry x="205" y="550" width="90" height="20" as="geometry" />
        </mxCell>
        <mxCell id="yvM0evaUFP_A3iR6w8Kv-61" value="原型工厂" style="text;html=1;align=center;verticalAlign=middle;resizable=0;points=[];autosize=1;strokeColor=none;fillColor=none;fontColor=default;" vertex="1" parent="1">
          <mxGeometry x="240" y="660" width="60" height="20" as="geometry" />
        </mxCell>
        <mxCell id="yvM0evaUFP_A3iR6w8Kv-62" value="扩充功能" style="text;html=1;align=center;verticalAlign=middle;resizable=0;points=[];autosize=1;strokeColor=none;fillColor=none;fontColor=default;" vertex="1" parent="1">
          <mxGeometry x="360" y="670" width="60" height="20" as="geometry" />
        </mxCell>
      </root>
    </mxGraphModel>
  </diagram>
</mxfile>
